{
  "asset": {
    "version": "2.0",
    "generator": "THREE.GLTFExporter r177"
  },
  "scenes": [
    {
      "name": "Scene",
      "nodes": [
        0,
        1
      ]
    }
  ],
  "scene": 0,
  "nodes": [
    {
      "matrix": [
        1,
        0,
        0,
        0,
        0,
        1,
        0,
        0,
        0,
        0,
        1,
        0,
        0,
        1.1298739549993746,
        1.7944353347449704,
        1
      ],
      "name": "AmbientLight"
    },
    {
      "matrix": [
        0.10703990325160095,
        0,
        0,
        0,
        0,
        0.10703990325160095,
        0,
        0,
        0,
        0,
        0.10703990325160095,
        0,
        48.38265277786299,
        17.149791789800865,
        -19.71971929119124,
        1
      ],
      "name": "test to upload to three,js.gltf",
      "children": [
        2,
        3,
        4,
        5,
        6,
        7
      ]
    },
    {
      "name": "mesh_0",
      "mesh": 0
    },
    {
      "name": "mesh_1",
      "mesh": 1
    },
    {
      "name": "mesh_2",
      "mesh": 2
    },
    {
      "name": "mesh_3",
      "mesh": 3
    },
    {
      "name": "mesh_4",
      "mesh": 4
    },
    {
      "name": "mesh_5",
      "mesh": 5
    }
  ],
  "bufferViews": [
    {
      "buffer": 0,
      "byteOffset": 0,
      "byteLength": 9132,
      "target": 34962,
      "byteStride": 12
    },
    {
      "buffer": 0,
      "byteOffset": 9132,
      "byteLength": 9132,
      "target": 34962,
      "byteStride": 12
    },
    {
      "buffer": 0,
      "byteOffset": 18264,
      "byteLength": 6088,
      "target": 34962,
      "byteStride": 8
    },
    {
      "buffer": 0,
      "byteOffset": 24352,
      "byteLength": 5928,
      "target": 34963
    },
    {
      "buffer": 0,
      "byteOffset": 30280,
      "byteLength": 4536,
      "target": 34962,
      "byteStride": 12
    },
    {
      "buffer": 0,
      "byteOffset": 34816,
      "byteLength": 4536,
      "target": 34962,
      "byteStride": 12
    },
    {
      "buffer": 0,
      "byteOffset": 39352,
      "byteLength": 3024,
      "target": 34962,
      "byteStride": 8
    },
    {
      "buffer": 0,
      "byteOffset": 42376,
      "byteLength": 2880,
      "target": 34963
    },
    {
      "buffer": 0,
      "byteOffset": 45256,
      "byteLength": 888,
      "target": 34962,
      "byteStride": 12
    },
    {
      "buffer": 0,
      "byteOffset": 46144,
      "byteLength": 888,
      "target": 34962,
      "byteStride": 12
    },
    {
      "buffer": 0,
      "byteOffset": 47032,
      "byteLength": 592,
      "target": 34962,
      "byteStride": 8
    },
    {
      "buffer": 0,
      "byteOffset": 47624,
      "byteLength": 552,
      "target": 34963
    },
    {
      "buffer": 0,
      "byteOffset": 48176,
      "byteLength": 888,
      "target": 34962,
      "byteStride": 12
    },
    {
      "buffer": 0,
      "byteOffset": 49064,
      "byteLength": 888,
      "target": 34962,
      "byteStride": 12
    },
    {
      "buffer": 0,
      "byteOffset": 49952,
      "byteLength": 592,
      "target": 34962,
      "byteStride": 8
    },
    {
      "buffer": 0,
      "byteOffset": 50544,
      "byteLength": 432,
      "target": 34963
    },
    {
      "buffer": 0,
      "byteOffset": 50976,
      "byteLength": 8280,
      "target": 34962,
      "byteStride": 12
    },
    {
      "buffer": 0,
      "byteOffset": 59256,
      "byteLength": 8280,
      "target": 34962,
      "byteStride": 12
    },
    {
      "buffer": 0,
      "byteOffset": 67536,
      "byteLength": 5520,
      "target": 34962,
      "byteStride": 8
    },
    {
      "buffer": 0,
      "byteOffset": 73056,
      "byteLength": 5448,
      "target": 34963
    },
    {
      "buffer": 0,
      "byteOffset": 78504,
      "byteLength": 17088,
      "target": 34962,
      "byteStride": 12
    },
    {
      "buffer": 0,
      "byteOffset": 95592,
      "byteLength": 17088,
      "target": 34962,
      "byteStride": 12
    },
    {
      "buffer": 0,
      "byteOffset": 112680,
      "byteLength": 11392,
      "target": 34962,
      "byteStride": 8
    },
    {
      "buffer": 0,
      "byteOffset": 124072,
      "byteLength": 11280,
      "target": 34963
    }
  ],
  "buffers": [
    {
      "byteLength": 135352,
      "uri": "data:application/octet-stream;base64,"
    }
  ],
  "accessors": [
    {
      "bufferView": 0,
      "componentType": 5126,
      "count": 761,
      "max": [
        -327.3078918457031,
        -119.97920989990234,
        137.69166564941406
      ],
      "min": [
        -394.6632080078125,
        -150.05731201171875,
        64.82373809814453
      ],
      "type": "VEC3"
    },
    {
      "bufferView": 1,
      "componentType": 5126,
      "count": 761,
      "max": [
        0.9971787333488464,
        1,
        0.99619460105896
      ],
      "min": [
        -0.9974337220191956,
        -1,
        -0.9961891770362854
      ],
      "type": "VEC3"
    },
    {
      "bufferView": 2,
      "componentType": 5126,
      "count": 761,
      "max": [
        0.1662340760231018,
        0.4367748498916626
      ],
      "min": [
        0.10488519072532654,
        0.3657039403915405
      ],
      "type": "VEC2"
    },
    {
      "bufferView": 3,
      "componentType": 5125,
      "count": 1482,
      "max": [
        760
      ],
      "min": [
        0
      ],
      "type": "SCALAR"
    },
    {
      "bufferView": 4,
      "componentType": 5126,
      "count": 378,
      "max": [
        -313.6196594238281,
        -129.94692993164062,
        170.71189880371094
      ],
      "min": [
        -372.2664794921875,
        -149.6162109375,
        153.24456787109375
      ],
      "type": "VEC3"
    },
    {
      "bufferView": 5,
      "componentType": 5126,
      "count": 378,
      "max": [
        0.9889306426048279,
        1,
        0.9889496564865112
      ],
      "min": [
        -0.9889260530471802,
        -1,
        -0.9891265034675598
      ],
      "type": "VEC3"
    },
    {
      "bufferView": 6,
      "componentType": 5126,
      "count": 378,
      "max": [
        0.17870163917541504,
        0.3505345582962036
      ],
      "min": [
        0.12528470158576965,
        0.3334980010986328
      ],
      "type": "VEC2"
    },
    {
      "bufferView": 7,
      "componentType": 5125,
      "count": 720,
      "max": [
        377
      ],
      "min": [
        0
      ],
      "type": "SCALAR"
    },
    {
      "bufferView": 8,
      "componentType": 5126,
      "count": 74,
      "max": [
        -310.3012390136719,
        -130.12693786621094,
        203.93565368652344
      ],
      "min": [
        -353.3612976074219,
        -149.39559936523438,
        193.18385314941406
      ],
      "type": "VEC3"
    },
    {
      "bufferView": 9,
      "componentType": 5126,
      "count": 74,
      "max": [
        0.998960018157959,
        1,
        0.9990107417106628
      ],
      "min": [
        -0.998960018157959,
        -1,
        -0.9989756941795349
      ],
      "type": "VEC3"
    },
    {
      "bufferView": 10,
      "componentType": 5126,
      "count": 74,
      "max": [
        0.18172413110733032,
        0.31158018112182617
      ],
      "min": [
        0.14250397682189941,
        0.30109357833862305
      ],
      "type": "VEC2"
    },
    {
      "bufferView": 11,
      "componentType": 5125,
      "count": 138,
      "max": [
        73
      ],
      "min": [
        0
      ],
      "type": "SCALAR"
    },
    {
      "bufferView": 12,
      "componentType": 5126,
      "count": 74,
      "max": [
        -325.079345703125,
        -131.62693786621094,
        230.0856475830078
      ],
      "min": [
        -350.04278564453125,
        -150.05731201171875,
        213.74948120117188
      ],
      "type": "VEC3"
    },
    {
      "bufferView": 13,
      "componentType": 5126,
      "count": 74,
      "max": [
        0.9397760629653931,
        0.8698562979698181,
        0.9397760629653931
      ],
      "min": [
        -0.9397760629653931,
        -1,
        -0.9397760629653931
      ],
      "type": "VEC3"
    },
    {
      "bufferView": 14,
      "componentType": 5126,
      "count": 74,
      "max": [
        0.16826388239860535,
        0.2915217876434326
      ],
      "min": [
        0.14552655816078186,
        0.2755885124206543
      ],
      "type": "VEC2"
    },
    {
      "bufferView": 15,
      "componentType": 5125,
      "count": 108,
      "max": [
        73
      ],
      "min": [
        0
      ],
      "type": "SCALAR"
    },
    {
      "bufferView": 16,
      "componentType": 5126,
      "count": 690,
      "max": [
        -370.3719787597656,
        -103.47920989990234,
        279.1873779296875
      ],
      "min": [
        -499.90301513671875,
        -150.49830627441406,
        203.15487670898438
      ],
      "type": "VEC3"
    },
    {
      "bufferView": 17,
      "componentType": 5126,
      "count": 690,
      "max": [
        0.9983848333358765,
        1,
        0.9986777901649475
      ],
      "min": [
        -0.998829185962677,
        -1,
        -0.9984586238861084
      ],
      "type": "VEC3"
    },
    {
      "bufferView": 18,
      "componentType": 5126,
      "count": 690,
      "max": [
        0.1270102560520172,
        0.30185508728027344
      ],
      "min": [
        0.009030163288116455,
        0.22769761085510254
      ],
      "type": "VEC2"
    },
    {
      "bufferView": 19,
      "componentType": 5125,
      "count": 1362,
      "max": [
        689
      ],
      "min": [
        0
      ],
      "type": "SCALAR"
    },
    {
      "bufferView": 20,
      "componentType": 5126,
      "count": 1424,
      "max": [
        -405.9267883300781,
        -110.49671173095703,
        192.66073608398438
      ],
      "min": [
        -490.46124267578125,
        -150.49830627441406,
        151.38198852539062
      ],
      "type": "VEC3"
    },
    {
      "bufferView": 21,
      "componentType": 5126,
      "count": 1424,
      "max": [
        0.9999994039535522,
        1,
        0.9999644160270691
      ],
      "min": [
        -0.9999597668647766,
        -1,
        -0.9999603629112244
      ],
      "type": "VEC3"
    },
    {
      "bufferView": 22,
      "componentType": 5126,
      "count": 1424,
      "max": [
        0.0946260392665863,
        0.35235118865966797
      ],
      "min": [
        0.01762998104095459,
        0.31209051609039307
      ],
      "type": "VEC2"
    },
    {
      "bufferView": 23,
      "componentType": 5125,
      "count": 2820,
      "max": [
        1423
      ],
      "min": [
        0
      ],
      "type": "SCALAR"
    }
  ],
  "materials": [
    {
      "pbrMetallicRoughness": {
        "metallicFactor": 0,
        "roughnessFactor": 1
      },
      "name": "Plaster (3)",
      "extensions": {
        "KHR_materials_ior": {
          "ior": 1
        },
        "KHR_materials_specular": {
          "specularFactor": 0.5,
          "specularColorFactor": [
            1,
            1,
            1
          ]
        }
      }
    }
  ],
  "meshes": [
    {
      "primitives": [
        {
          "mode": 4,
          "attributes": {
            "POSITION": 0,
            "NORMAL": 1,
            "TEXCOORD_0": 2
          },
          "indices": 3,
          "material": 0
        }
      ]
    },
    {
      "primitives": [
        {
          "mode": 4,
          "attributes": {
            "POSITION": 4,
            "NORMAL": 5,
            "TEXCOORD_0": 6
          },
          "indices": 7,
          "material": 0
        }
      ]
    },
    {
      "primitives": [
        {
          "mode": 4,
          "attributes": {
            "POSITION": 8,
            "NORMAL": 9,
            "TEXCOORD_0": 10
          },
          "indices": 11,
          "material": 0
        }
      ]
    },
    {
      "primitives": [
        {
          "mode": 4,
          "attributes": {
            "POSITION": 12,
            "NORMAL": 13,
            "TEXCOORD_0": 14
          },
          "indices": 15,
          "material": 0
        }
      ]
    },
    {
      "primitives": [
        {
          "mode": 4,
          "attributes": {
            "POSITION": 16,
            "NORMAL": 17,
            "TEXCOORD_0": 18
          },
          "indices": 19,
          "material": 0
        }
      ]
    },
    {
      "primitives": [
        {
          "mode": 4,
          "attributes": {
            "POSITION": 20,
            "NORMAL": 21,
            "TEXCOORD_0": 22
          },
          "indices": 23,
          "material": 0
        }
      ]
    }
  ],
  "extensionsUsed": [
    "KHR_materials_ior",
    "KHR_materials_specular"
  ]
}